<svg width="1440" height="1021" viewBox="0 0 1440 1021" fill="none" xmlns="http://www.w3.org/2000/svg">
<path opacity="0.2" d="M80 0L80.5 1020.5" stroke="#2F3930" stroke-dasharray="2 4 6 8"/>
<path opacity="0.2" d="M0 186L1440 186" stroke="#2F3930" stroke-dasharray="2 4 6 8"/>
<path opacity="0.2" d="M0 395L1440 395" stroke="#2F3930" stroke-dasharray="2 4 6 8"/>
<path opacity="0.2" d="M0 604L1440 604" stroke="#2F3930" stroke-dasharray="2 4 6 8"/>
<path opacity="0.2" d="M0 813L1440 813" stroke="#2F3930" stroke-dasharray="2 4 6 8"/>
<path opacity="0.2" d="M0 210L1440 210" stroke="#2F3930" stroke-dasharray="2 4 6 8"/>
<path opacity="0.2" d="M0 419L1440 419" stroke="#2F3930" stroke-dasharray="2 4 6 8"/>
<path opacity="0.2" d="M0 628L1440 628" stroke="#2F3930" stroke-dasharray="2 4 6 8"/>
<path opacity="0.2" d="M0 837L1440 837" stroke="#2F3930" stroke-dasharray="2 4 6 8"/>
<path opacity="0.2" d="M1360 0V1021" stroke="#2F3930" stroke-dasharray="2 4 6 8"/>
<path opacity="0.2" d="M317 0V1021" stroke="#2F3930" stroke-dasharray="2 4 6 8"/>
<path opacity="0.2" d="M578 0V1021" stroke="#2F3930" stroke-dasharray="2 4 6 8"/>
<path opacity="0.2" d="M839 0V1021" stroke="#2F3930" stroke-dasharray="2 4 6 8"/>
<path opacity="0.2" d="M1100 0V1021" stroke="#2F3930" stroke-dasharray="2 4 6 8"/>
<path opacity="0.2" d="M341 0V1021" stroke="#2F3930" stroke-dasharray="2 4 6 8"/>
<path opacity="0.2" d="M602 0V1021" stroke="#2F3930" stroke-dasharray="2 4 6 8"/>
<path opacity="0.2" d="M863 0V1021" stroke="#2F3930" stroke-dasharray="2 4 6 8"/>
<path opacity="0.2" d="M1124 0V1021" stroke="#2F3930" stroke-dasharray="2 4 6 8"/>
</svg>
