<svg width="24" height="24" viewBox="0 0 24 24" fill="none" xmlns="http://www.w3.org/2000/svg">
<path d="M14 9C14 8.60218 14.158 8.22064 14.4393 7.93934C14.7206 7.65804 15.1022 7.5 15.5 7.5C15.8978 7.5 16.2794 7.65804 16.5607 7.93934C16.842 8.22064 17 8.60218 17 9C17 9.39782 16.842 9.77936 16.5607 10.0607C16.2794 10.342 15.8978 10.5 15.5 10.5C15.1022 10.5 14.7206 10.342 14.4393 10.0607C14.158 9.77936 14 9.39782 14 9Z" fill="black"/>
<path fill-rule="evenodd" clip-rule="evenodd" d="M7.26809 4.65794C10.4172 4.3842 13.584 4.3842 16.7331 4.65794L18.2431 4.78994C18.9451 4.85106 19.6061 5.1467 20.1197 5.62922C20.6332 6.11175 20.9694 6.75309 21.0741 7.44994C21.5276 10.4663 21.5276 13.5336 21.0741 16.5499C20.9694 17.2468 20.6332 17.8881 20.1197 18.3707C19.6061 18.8532 18.9451 19.1488 18.2431 19.2099L16.7331 19.3409C13.5831 19.6149 10.4171 19.6149 7.26809 19.3409L5.75809 19.2099C5.0559 19.149 4.39465 18.8535 3.8809 18.371C3.36716 17.8884 3.03082 17.247 2.92609 16.5499C2.47255 13.5336 2.47255 10.4663 2.92609 7.44994C3.03078 6.75309 3.36697 6.11175 3.88051 5.62922C4.39406 5.1467 5.05508 4.85106 5.75709 4.78994L7.26809 4.65794ZM16.6031 6.15294C13.5402 5.88667 10.46 5.88667 7.39709 6.15294L5.88709 6.28394C5.52085 6.31598 5.17604 6.4703 4.90813 6.72206C4.64023 6.97383 4.4648 7.3084 4.41009 7.67194C4.15297 9.38261 4.04889 11.1128 4.09909 12.8419L7.97009 8.96994C8.04234 8.89781 8.12856 8.84119 8.22346 8.80355C8.31836 8.76591 8.41994 8.74804 8.52199 8.75104C8.62404 8.75403 8.7244 8.77783 8.81693 8.82098C8.90945 8.86412 8.9922 8.9257 9.06009 9.00194L12.7321 13.1319L15.2621 12.2879C15.4008 12.2415 15.5501 12.2367 15.6915 12.274C15.8329 12.3113 15.9603 12.3891 16.0581 12.4979L19.5771 16.4079C20.0213 13.5132 20.026 10.5681 19.5911 7.67194C19.5363 7.30824 19.3608 6.97356 19.0927 6.72177C18.8246 6.46999 18.4795 6.31577 18.1131 6.28394L16.6031 6.15294ZM18.6201 17.5879L15.2711 13.8669L12.7371 14.7109C12.5978 14.7574 12.448 14.762 12.3061 14.7242C12.1643 14.6863 12.0367 14.6077 11.9391 14.4979L8.46809 10.5929L4.22409 14.8359C4.27309 15.3339 4.33409 15.8319 4.40909 16.3269C4.46364 16.6908 4.63912 17.0257 4.90725 17.2777C5.17537 17.5297 5.52053 17.6841 5.88709 17.7159L7.39709 17.8469C10.4601 18.1129 13.5401 18.1129 16.6031 17.8469L18.1131 17.7159C18.2911 17.6999 18.4631 17.6559 18.6201 17.5879Z" fill="black"/>
</svg>
